{
	"asset":{
		"generator":"Khronos glTF Blender I/O v3.5.30",
		"version":"2.0"
	},
	"extensionsUsed":[
		"KHR_lights_punctual"
	],
	"extensionsRequired":[
		"KHR_lights_punctual"
	],
	"extensions":{
		"KHR_lights_punctual":{
			"lights":[
				{
					"color":[
						1,
						1,
						1
					],
					"intensity":27175.70653294113,
					"type":"point",
					"name":"Light.001"
				}
			]
		}
	},
	"scene":0,
	"scenes":[
		{
			"name":"Scene",
			"nodes":[
				9,
				10
			]
		}
	],
	"nodes":[
		{
			"mesh":0,
			"name":"Object_2"
		},
		{
			"mesh":1,
			"name":"Object_3"
		},
		{
			"mesh":2,
			"name":"Object_4"
		},
		{
			"mesh":3,
			"name":"Object_5"
		},
		{
			"mesh":4,
			"name":"Object_6"
		},
		{
			"mesh":5,
			"name":"Object_7"
		},
		{
			"mesh":6,
			"name":"Object_8"
		},
		{
			"mesh":7,
			"name":"Object_9"
		},
		{
			"children":[
				0,
				1,
				2,
				3,
				4,
				5,
				6,
				7
			],
			"name":"CornellBox-Original.obj.cleaner.materialmerger.gles"
		},
		{
			"children":[
				8
			],
			"name":"Sketchfab_model"
		},
		{
			"extensions":{
				"KHR_lights_punctual":{
					"light":0
				}
			},
			"name":"Light",
			"rotation":[
				-0.3420339524745941,
				-0.52327561378479,
				-0.2841663062572479,
				0.7269421815872192
			],
			"translation":[
				-0.24999995529651642,
				0.8950247764587402,
				0
			]
		}
	],
	"materials":[
		{
			"doubleSided":true,
			"name":"backWall",
			"pbrMetallicRoughness":{
				"baseColorTexture":{
					"index":0
				},
				"metallicFactor":0
			}
		},
		{
			"doubleSided":true,
			"name":"ceiling",
			"pbrMetallicRoughness":{
				"baseColorTexture":{
					"index":1
				},
				"metallicFactor":0
			}
		},
		{
			"doubleSided":true,
			"name":"floor",
			"pbrMetallicRoughness":{
				"baseColorTexture":{
					"index":2
				},
				"metallicFactor":0
			}
		},
		{
			"doubleSided":true,
			"name":"leftWall",
			"pbrMetallicRoughness":{
				"baseColorTexture":{
					"index":3
				},
				"metallicFactor":0
			}
		},
		{
			"doubleSided":true,
			"name":"light",
			"pbrMetallicRoughness":{
				"baseColorTexture":{
					"index":4
				},
				"metallicFactor":0
			}
		},
		{
			"doubleSided":true,
			"name":"rightWall",
			"pbrMetallicRoughness":{
				"baseColorTexture":{
					"index":5
				},
				"metallicFactor":0
			}
		},
		{
			"doubleSided":true,
			"name":"shortBox",
			"pbrMetallicRoughness":{
				"baseColorTexture":{
					"index":6
				},
				"metallicRoughnessTexture":{
					"index":7
				}
			}
		},
		{
			"doubleSided":true,
			"name":"tallBox",
			"pbrMetallicRoughness":{
				"baseColorTexture":{
					"index":8
				},
				"metallicRoughnessTexture":{
					"index":9
				}
			}
		}
	],
	"meshes":[
		{
			"name":"Object_0",
			"primitives":[
				{
					"attributes":{
						"POSITION":0,
						"NORMAL":1
					},
					"indices":2,
					"material":0
				}
			]
		},
		{
			"name":"Object_1",
			"primitives":[
				{
					"attributes":{
						"POSITION":3,
						"NORMAL":4
					},
					"indices":5,
					"material":1
				}
			]
		},
		{
			"name":"Object_2",
			"primitives":[
				{
					"attributes":{
						"POSITION":6,
						"NORMAL":7
					},
					"indices":8,
					"material":2
				}
			]
		},
		{
			"name":"Object_3",
			"primitives":[
				{
					"attributes":{
						"POSITION":9,
						"NORMAL":10
					},
					"indices":11,
					"material":3
				}
			]
		},
		{
			"name":"Object_4",
			"primitives":[
				{
					"attributes":{
						"POSITION":12,
						"NORMAL":13
					},
					"indices":2,
					"material":4
				}
			]
		},
		{
			"name":"Object_5",
			"primitives":[
				{
					"attributes":{
						"POSITION":14,
						"NORMAL":15
					},
					"indices":16,
					"material":5
				}
			]
		},
		{
			"name":"Object_6",
			"primitives":[
				{
					"attributes":{
						"POSITION":17,
						"NORMAL":18
					},
					"indices":19,
					"material":6
				}
			]
		},
		{
			"name":"Object_7",
			"primitives":[
				{
					"attributes":{
						"POSITION":20,
						"NORMAL":21
					},
					"indices":22,
					"material":7
				}
			]
		}
	],
	"textures":[
		{
			"sampler":0,
			"source":0
		},
		{
			"sampler":0,
			"source":0
		},
		{
			"sampler":0,
			"source":0
		},
		{
			"sampler":0,
			"source":1
		},
		{
			"sampler":0,
			"source":0
		},
		{
			"sampler":0,
			"source":2
		},
		{
			"sampler":0,
			"source":0
		},
		{
			"sampler":0,
			"source":3
		},
		{
			"sampler":0,
			"source":0
		},
		{
			"sampler":0,
			"source":4
		}
	],
	"images":[
		{
			"bufferView":3,
			"mimeType":"image/png",
			"name":"white"
		},
		{
			"bufferView":13,
			"mimeType":"image/png",
			"name":"green"
		},
		{
			"bufferView":19,
			"mimeType":"image/png",
			"name":"red"
		},
		{
			"bufferView":23,
			"mimeType":"image/png",
			"name":"black-white"
		},
		{
			"bufferView":27,
			"mimeType":"image/png",
			"name":"black"
		}
	],
	"accessors":[
		{
			"bufferView":0,
			"componentType":5126,
			"count":4,
			"max":[
				1.7199735641479492,
				1.0899988412857056,
				2.0614876747131348
			],
			"min":[
				-2.3220434188842773,
				-0.9000009298324585,
				2.0614867210388184
			],
			"type":"VEC3"
		},
		{
			"bufferView":1,
			"componentType":5126,
			"count":4,
			"type":"VEC3"
		},
		{
			"bufferView":2,
			"componentType":5123,
			"count":6,
			"type":"SCALAR"
		},
		{
			"bufferView":4,
			"componentType":5126,
			"count":24,
			"max":[
				1.739367961883545,
				1.2445111274719238,
				2.1565446853637695
			],
			"min":[
				-2.341057777404785,
				1.089998722076416,
				-2.086153984069824
			],
			"type":"VEC3"
		},
		{
			"bufferView":5,
			"componentType":5126,
			"count":24,
			"type":"VEC3"
		},
		{
			"bufferView":6,
			"componentType":5123,
			"count":36,
			"type":"SCALAR"
		},
		{
			"bufferView":7,
			"componentType":5126,
			"count":24,
			"max":[
				1.6917190551757812,
				-0.8999995589256287,
				2.0629446506500244
			],
			"min":[
				-2.3138811588287354,
				-1.0372343063354492,
				-1.9970552921295166
			],
			"type":"VEC3"
		},
		{
			"bufferView":8,
			"componentType":5126,
			"count":24,
			"type":"VEC3"
		},
		{
			"bufferView":9,
			"componentType":5123,
			"count":36,
			"type":"SCALAR"
		},
		{
			"bufferView":10,
			"componentType":5126,
			"count":28,
			"max":[
				1.8698033094406128,
				1.090000033378601,
				2.0633656978607178
			],
			"min":[
				1.6689550876617432,
				-0.9017179608345032,
				-1.9970552921295166
			],
			"type":"VEC3"
		},
		{
			"bufferView":11,
			"componentType":5126,
			"count":28,
			"type":"VEC3"
		},
		{
			"bufferView":12,
			"componentType":5123,
			"count":36,
			"type":"SCALAR"
		},
		{
			"bufferView":14,
			"componentType":5126,
			"count":4,
			"max":[
				-0.08104509115219116,
				1.0799994468688965,
				0.2245337963104248
			],
			"min":[
				-0.5510451197624207,
				1.079999327659607,
				-0.1554661989212036
			],
			"type":"VEC3"
		},
		{
			"bufferView":15,
			"componentType":5126,
			"count":4,
			"type":"VEC3"
		},
		{
			"bufferView":16,
			"componentType":5126,
			"count":24,
			"max":[
				-2.321044921875,
				1.090000033378601,
				2.0629453659057617
			],
			"min":[
				-2.4440927505493164,
				-0.9000009298324585,
				-1.997054934501648
			],
			"type":"VEC3"
		},
		{
			"bufferView":17,
			"componentType":5126,
			"count":24,
			"type":"VEC3"
		},
		{
			"bufferView":18,
			"componentType":5123,
			"count":36,
			"type":"SCALAR"
		},
		{
			"bufferView":20,
			"componentType":5126,
			"count":20,
			"max":[
				-0.27104514837265015,
				-0.30000007152557373,
				-0.017055153846740723
			],
			"min":[
				-1.0210450887680054,
				-0.900000274181366,
				-0.7670551538467407
			],
			"type":"VEC3"
		},
		{
			"bufferView":21,
			"componentType":5126,
			"count":20,
			"type":"VEC3"
		},
		{
			"bufferView":22,
			"componentType":5123,
			"count":30,
			"type":"SCALAR"
		},
		{
			"bufferView":24,
			"componentType":5126,
			"count":20,
			"max":[
				0.38895487785339355,
				0.2999995946884155,
				0.6529450416564941
			],
			"min":[
				-0.36104509234428406,
				-0.9000004529953003,
				-0.10705536603927612
			],
			"type":"VEC3"
		},
		{
			"bufferView":25,
			"componentType":5126,
			"count":20,
			"type":"VEC3"
		},
		{
			"bufferView":26,
			"componentType":5123,
			"count":30,
			"type":"SCALAR"
		}
	],
	"bufferViews":[
		{
			"buffer":0,
			"byteLength":48,
			"byteOffset":0,
			"target":34962
		},
		{
			"buffer":0,
			"byteLength":48,
			"byteOffset":48,
			"target":34962
		},
		{
			"buffer":0,
			"byteLength":12,
			"byteOffset":96,
			"target":34963
		},
		{
			"buffer":0,
			"byteLength":216,
			"byteOffset":108
		},
		{
			"buffer":0,
			"byteLength":288,
			"byteOffset":324,
			"target":34962
		},
		{
			"buffer":0,
			"byteLength":288,
			"byteOffset":612,
			"target":34962
		},
		{
			"buffer":0,
			"byteLength":72,
			"byteOffset":900,
			"target":34963
		},
		{
			"buffer":0,
			"byteLength":288,
			"byteOffset":972,
			"target":34962
		},
		{
			"buffer":0,
			"byteLength":288,
			"byteOffset":1260,
			"target":34962
		},
		{
			"buffer":0,
			"byteLength":72,
			"byteOffset":1548,
			"target":34963
		},
		{
			"buffer":0,
			"byteLength":336,
			"byteOffset":1620,
			"target":34962
		},
		{
			"buffer":0,
			"byteLength":336,
			"byteOffset":1956,
			"target":34962
		},
		{
			"buffer":0,
			"byteLength":72,
			"byteOffset":2292,
			"target":34963
		},
		{
			"buffer":0,
			"byteLength":221,
			"byteOffset":2364
		},
		{
			"buffer":0,
			"byteLength":48,
			"byteOffset":2588,
			"target":34962
		},
		{
			"buffer":0,
			"byteLength":48,
			"byteOffset":2636,
			"target":34962
		},
		{
			"buffer":0,
			"byteLength":288,
			"byteOffset":2684,
			"target":34962
		},
		{
			"buffer":0,
			"byteLength":288,
			"byteOffset":2972,
			"target":34962
		},
		{
			"buffer":0,
			"byteLength":72,
			"byteOffset":3260,
			"target":34963
		},
		{
			"buffer":0,
			"byteLength":221,
			"byteOffset":3332
		},
		{
			"buffer":0,
			"byteLength":240,
			"byteOffset":3556,
			"target":34962
		},
		{
			"buffer":0,
			"byteLength":240,
			"byteOffset":3796,
			"target":34962
		},
		{
			"buffer":0,
			"byteLength":60,
			"byteOffset":4036,
			"target":34963
		},
		{
			"buffer":0,
			"byteLength":251,
			"byteOffset":4096
		},
		{
			"buffer":0,
			"byteLength":240,
			"byteOffset":4348,
			"target":34962
		},
		{
			"buffer":0,
			"byteLength":240,
			"byteOffset":4588,
			"target":34962
		},
		{
			"buffer":0,
			"byteLength":60,
			"byteOffset":4828,
			"target":34963
		},
		{
			"buffer":0,
			"byteLength":251,
			"byteOffset":4888
		}
	],
	"samplers":[
		{
			"magFilter":9729,
			"minFilter":9987
		}
	],
	"buffers":[
		{
			"byteLength":5140,
			"uri":"data:application/octet-stream;base64,"
		}
	]
}
